<svg viewBox="0 0 600 350" xmlns="http://www.w3.org/2000/svg">
<rect width="600" height="350" fill="#ffffff"/>
<text x="300" y="30" font-family="Arial, sans-serif" font-size="14" text-anchor="middle" font-weight="bold" fill="#1a1a1a">Hydrogen Bonding Between Water Molecules</text>
<circle cx="150" cy="120" r="16.0" fill="#e63946"/>
<text x="150" y="124" font-family="Arial, sans-serif" font-size="12" text-anchor="middle" font-weight="bold" fill="#ffffff">O</text>
<line x1="150" y1="120" x2="124" y2="98" stroke="#333" stroke-width="2"/>
<circle cx="124" cy="98" r="10.0" fill="#a8dadc"/>
<text x="123.95448893395475" y="102.14522127065766" font-family="Arial, sans-serif" font-size="9" text-anchor="middle" font-weight="bold" fill="#1a1a1a">H</text>
<line x1="150" y1="120" x2="176" y2="98" stroke="#333" stroke-width="2"/>
<circle cx="176" cy="98" r="10.0" fill="#a8dadc"/>
<text x="176.04551106604524" y="102.14522127065766" font-family="Arial, sans-serif" font-size="9" text-anchor="middle" font-weight="bold" fill="#1a1a1a">H</text>
<circle cx="340" cy="110" r="16.0" fill="#e63946"/>
<text x="340" y="114" font-family="Arial, sans-serif" font-size="12" text-anchor="middle" font-weight="bold" fill="#ffffff">O</text>
<line x1="340" y1="110" x2="314" y2="88" stroke="#333" stroke-width="2"/>
<circle cx="314" cy="88" r="10.0" fill="#a8dadc"/>
<text x="313.95448893395474" y="92.14522127065766" font-family="Arial, sans-serif" font-size="9" text-anchor="middle" font-weight="bold" fill="#1a1a1a">H</text>
<line x1="340" y1="110" x2="366" y2="88" stroke="#333" stroke-width="2"/>
<circle cx="366" cy="88" r="10.0" fill="#a8dadc"/>
<text x="366.04551106604526" y="92.14522127065766" font-family="Arial, sans-serif" font-size="9" text-anchor="middle" font-weight="bold" fill="#1a1a1a">H</text>
<circle cx="230" cy="230" r="16.0" fill="#e63946"/>
<text x="230" y="234" font-family="Arial, sans-serif" font-size="12" text-anchor="middle" font-weight="bold" fill="#ffffff">O</text>
<line x1="230" y1="230" x2="204" y2="208" stroke="#333" stroke-width="2"/>
<circle cx="204" cy="208" r="10.0" fill="#a8dadc"/>
<text x="203.95448893395474" y="212.14522127065766" font-family="Arial, sans-serif" font-size="9" text-anchor="middle" font-weight="bold" fill="#1a1a1a">H</text>
<line x1="230" y1="230" x2="256" y2="208" stroke="#333" stroke-width="2"/>
<circle cx="256" cy="208" r="10.0" fill="#a8dadc"/>
<text x="256.04551106604526" y="212.14522127065766" font-family="Arial, sans-serif" font-size="9" text-anchor="middle" font-weight="bold" fill="#1a1a1a">H</text>
<circle cx="430" cy="240" r="16.0" fill="#e63946"/>
<text x="430" y="244" font-family="Arial, sans-serif" font-size="12" text-anchor="middle" font-weight="bold" fill="#ffffff">O</text>
<line x1="430" y1="240" x2="404" y2="218" stroke="#333" stroke-width="2"/>
<circle cx="404" cy="218" r="10.0" fill="#a8dadc"/>
<text x="403.95448893395474" y="222.14522127065766" font-family="Arial, sans-serif" font-size="9" text-anchor="middle" font-weight="bold" fill="#1a1a1a">H</text>
<line x1="430" y1="240" x2="456" y2="218" stroke="#333" stroke-width="2"/>
<circle cx="456" cy="218" r="10.0" fill="#a8dadc"/>
<text x="456.04551106604526" y="222.14522127065766" font-family="Arial, sans-serif" font-size="9" text-anchor="middle" font-weight="bold" fill="#1a1a1a">H</text>
<line x1="184" y1="145" x2="220" y2="215" stroke="#457b9d" stroke-width="1.5" stroke-dasharray="5,4"/>
<line x1="374" y1="130" x2="410" y2="225" stroke="#457b9d" stroke-width="1.5" stroke-dasharray="5,4"/>
<line x1="264" y1="225" x2="325" y2="140" stroke="#457b9d" stroke-width="1.5" stroke-dasharray="5,4"/>
<text x="300" y="300" font-family="Arial, sans-serif" font-size="11" text-anchor="middle" font-weight="normal" fill="#1a1a1a">Dashed lines = hydrogen bonds (weaker) between molecules</text>
<text x="300" y="320" font-family="Arial, sans-serif" font-size="11" text-anchor="middle" font-weight="normal" fill="#1a1a1a">Solid lines = covalent O-H bonds (stronger) within each molecule</text>
</svg>