<svg viewBox="0 0 550 420" xmlns="http://www.w3.org/2000/svg">
<rect width="550" height="420" fill="#ffffff"/>
<text x="275" y="30" font-family="Arial, sans-serif" font-size="14" text-anchor="middle" font-weight="bold" fill="#1a1a1a">Titration Curve: Strong Acid + Strong Alkali</text>
<line x1="70" y1="360" x2="500" y2="360" stroke="#333" stroke-width="2"/>
<line x1="70" y1="360" x2="70" y2="40" stroke="#333" stroke-width="2"/>
<text x="285" y="395" font-family="Arial, sans-serif" font-size="12" text-anchor="middle" font-weight="normal" fill="#1a1a1a">Volume of alkali added (cm3)</text>
<text x="30" y="200" font-family="Arial, sans-serif" font-size="13" text-anchor="middle" transform="rotate(-90 30 200)" font-weight="normal" fill="#1a1a1a">pH</text>
<path d="M 70.0,337.1 L 78.6,337.1 L 87.2,337.0 L 95.8,337.0 L 104.4,336.9 L 113.0,336.8 L 121.6,336.7 L 130.2,336.5 L 138.8,336.2 L 147.4,335.8 L 156.0,335.3 L 164.6,334.6 L 173.2,333.6 L 181.8,332.2 L 190.4,330.3 L 199.0,327.7 L 207.6,324.1 L 216.2,319.3 L 224.8,312.9 L 233.4,304.4 L 242.0,293.6 L 250.6,279.9 L 259.2,263.4 L 267.8,244.1 L 276.4,222.6 L 285.0,200.0 L 293.6,177.4 L 302.2,155.9 L 310.8,136.6 L 319.4,120.1 L 328.0,106.4 L 336.6,95.6 L 345.2,87.1 L 353.8,80.7 L 362.4,75.9 L 371.0,72.3 L 379.6,69.7 L 388.2,67.8 L 396.8,66.4 L 405.4,65.4 L 414.0,64.7 L 422.6,64.2 L 431.2,63.8 L 439.8,63.5 L 448.4,63.3 L 457.0,63.2 L 465.6,63.1 L 474.2,63.0 L 482.8,63.0 L 491.4,62.9 L 500.0,62.9" fill="none" stroke="#e63946" stroke-width="2.5"/>
<line x1="285" y1="360" x2="285" y2="40" stroke="#999" stroke-width="1" stroke-dasharray="4,3"/>
<text x="285" y="375" font-family="Arial, sans-serif" font-size="10" text-anchor="middle" font-weight="normal" fill="#1a1a1a">equivalence point</text>
<text x="90" y="60" font-family="Arial, sans-serif" font-size="10" text-anchor="start" font-weight="normal" fill="#1a1a1a">13</text>
<text x="90" y="355" font-family="Arial, sans-serif" font-size="10" text-anchor="start" font-weight="normal" fill="#1a1a1a">1</text>
<text x="275" y="205" font-family="Arial, sans-serif" font-size="10" text-anchor="middle" font-weight="normal" fill="#e63946">steep vertical</text>
<text x="275" y="220" font-family="Arial, sans-serif" font-size="10" text-anchor="middle" font-weight="normal" fill="#e63946">'jump' at equivalence</text>
</svg>